<svg id="Layer_1" data-name="Layer 1" xmlns="http://www.w3.org/2000/svg" viewBox="0 0 100 100"><defs><style>.cls-1{fill:#54a0fa;}.cls-2,.cls-3{fill:#f1f2f2;}.cls-3{opacity:0.8;}</style></defs><rect class="cls-1" width="100" height="100"/><path class="cls-2" d="M27.23,34l0-.12A.21.21,0,0,0,27.23,34Z"/><path class="cls-2" d="M6.14,46.6l0,0A0,0,0,0,0,6.14,46.6Z"/><path class="cls-2" d="M9.32,48.25,9.48,48A1.08,1.08,0,0,0,9.32,48.25Z"/><path class="cls-2" d="M51,68.27q1.31-3.34,2.76-6.55t2.91-6.48c.44-.92.86-1.84,1.28-2.76l1.2-2.7c.05-.14.19-.49.44-1.05s.49-1.14.76-1.75.62-1.42,1-2.44c-.09,0-.26.18-.5.51Q62,42.8,63.49,40.32a50.84,50.84,0,0,0,2.61-5.09,22.3,22.3,0,0,0,1.64-5.35,11.26,11.26,0,0,0-.33-5.35s-.09-.12-.14-.36V24a6.22,6.22,0,0,0-2-3,4,4,0,0,0-2.62-.73,6.77,6.77,0,0,0-2.91,1,23.9,23.9,0,0,0-2.91,2,26.55,26.55,0,0,0-2.66,2.4c-.83.85-1.5,1.56-2,2.15Q47.77,32.69,43.91,38t-7.5,10.73L39,45.13l1.89-2.62q-1.66,2.33-3.2,4.73t-3,4.73a9.48,9.48,0,0,1,.94-2l-.36.58c.53-1.31,1-2.62,1.49-3.93s.88-2.64,1.27-4q.81-2.76,1.9-5.46t1.89-5.46c.48-1.79,1-3.56,1.45-5.31A9.41,9.41,0,0,0,43.18,21c-.24-.92-.49-1.81-.73-2.66a4.57,4.57,0,0,0-1.6-2.29,4.71,4.71,0,0,0-3-1.09,10.44,10.44,0,0,0-3.2.51A15.92,15.92,0,0,0,29.75,18a17,17,0,0,0-3.89,4,3.59,3.59,0,0,0-.47,1.05,6.65,6.65,0,0,1-.33,1,3.68,3.68,0,0,1-.51.77,5.58,5.58,0,0,0-.51.69,11.75,11.75,0,0,0-1.13,2.55,9.59,9.59,0,0,0-.4,2.76,11.15,11.15,0,0,0,.18,2.59A2.7,2.7,0,0,0,24,35.52c.87.49,1.53.34,2-.44a.91.91,0,0,0,.07-.76,1.39,1.39,0,0,1-.15-.47,4.81,4.81,0,0,1,.29-1.13c.15-.37.29-.72.44-1.06a26.06,26.06,0,0,1,2-4.29A49.37,49.37,0,0,1,31.32,23,11.87,11.87,0,0,1,35,19.51l.69-.36a4.84,4.84,0,0,1,.87-.37,3.36,3.36,0,0,1,.91-.14,1.57,1.57,0,0,1,.8.21,1.35,1.35,0,0,1,.48,1,6.29,6.29,0,0,1-.08,1.34,9.45,9.45,0,0,1-.32,1.42,7,7,0,0,0-.29,1.13A63.73,63.73,0,0,1,36,30.17q-1.24,3.16-2.62,6.26c-.93,2.06-1.84,4.14-2.73,6.22s-1.69,4.2-2.37,6.33A41,41,0,0,1,26,54.51a50.14,50.14,0,0,0-2.37,5.54l-1.71,4.84a12.67,12.67,0,0,0-.76,5,4.63,4.63,0,0,0,.55,1.78,4,4,0,0,0,1.2,1.46,2.77,2.77,0,0,0,1.6.58,2.42,2.42,0,0,0,1.74-.76,2.78,2.78,0,0,0,1-1.71,8.87,8.87,0,0,1,.58-1.93c.39-1,.79-1.89,1.2-2.77a29.4,29.4,0,0,1,1.42-2.62c1.26-2.23,2.6-4.4,4-6.51s2.77-4.26,4.08-6.44a8.89,8.89,0,0,0,.65-1.27,3.78,3.78,0,0,1,.81-1.21,6.46,6.46,0,0,1,.83-.69,3,3,0,0,0,.84-.91c.77-1,1.53-2,2.26-3s1.45-2.07,2.18-3.09c1.41-2,2.88-4,4.44-5.89s3.15-3.76,4.8-5.61c.68-.82,1.4-1.64,2.15-2.44a10.5,10.5,0,0,1,2.58-2,3.17,3.17,0,0,1,.51-.36.89.89,0,0,1,.66-.15c.29.1.42.38.4.84s0,.72,0,.76.16-.2.18-.61,0-.65,0-.7a3.55,3.55,0,0,1-.25,2.33c-.37.88-.67,1.63-.91,2.26l.14-.58.15-.59c-.1,0-.31.3-.62.88s-.66,1.25-1,2-.69,1.45-1,2.11-.49,1.05-.58,1.2c-.64,1.26-1.24,2.5-1.82,3.71s-1.14,2.45-1.68,3.71-1.09,2.5-1.67,3.72-1.19,2.45-1.82,3.71l-2,3.93c-.19.43-.48,1-.87,1.74a3.34,3.34,0,0,0-.51,1.82.09.09,0,0,0,.15,0l-.73,1.82.14-.58a5,5,0,0,1,.22-.73,2,2,0,0,0-.43,1c-.1.47-.15.72-.15.77q-1,2.32-2.07,4.55a23,23,0,0,0-1.64,4.69,23.93,23.93,0,0,0-.51,5.61,19.76,19.76,0,0,0,2,7.78,15.58,15.58,0,0,0,1.34,2.22,10.85,10.85,0,0,0,1.75,1.89,6,6,0,0,0,2.15,1.2A5.91,5.91,0,0,0,52,87a8.39,8.39,0,0,0,2.37-.58,13.85,13.85,0,0,0,2.22-1.17,11.69,11.69,0,0,0,1.85-1.49c.1-.1.29-.33.59-.69a12.79,12.79,0,0,0,.8-1.13,3.59,3.59,0,0,0,.47-1c.07-.32-.09-.5-.47-.55a2.25,2.25,0,0,0-1.35.4,6.68,6.68,0,0,1-1.35.62c-.53.14-1,.29-1.52.44s-1,.26-1.53.36-1.31.07-2,.07a7.35,7.35,0,0,1-2-.25,3.6,3.6,0,0,1-1.57-.91,2.6,2.6,0,0,1-.65-1.89,16.07,16.07,0,0,1,1-5.61Q50,70.75,51,68.27ZM29.43,48.69v.08a40.34,40.34,0,0,1-1.79,4.65L25.57,58A29.12,29.12,0,0,0,24.3,61.1c-.37,1-.72,2.1-1.06,3.17-.15.48-.28,1-.4,1.45s-.23,1-.33,1.46a5,5,0,0,0-.11,1.34,3,3,0,0,1-.18,1.28,2.8,2.8,0,0,0,0-1,3,3,0,0,1,0-1,21.32,21.32,0,0,1,.65-3.2,60.9,60.9,0,0,1,2.4-6.84q1.1-2.47,2.33-4.95a53.42,53.42,0,0,0,2.19-5Zm.86-2h0l-.07.07c-.2-.1-.15-.32.14-.66C30.6,46.16,30.57,46.36,30.29,46.66ZM48.06,33.05a.21.21,0,0,1,.07-.15l.22-.29Zm2.8-3.46c-.41.46-.81.93-1.2,1.42a31.87,31.87,0,0,1,2.47-2.84Zm8,6.37,2.84-5.9c0-.09.13-.3.25-.62l.44-1.12q.26-.66.51-1.35a10.76,10.76,0,0,0,.4-1.35v.15l-.08.29.08-.15a39.86,39.86,0,0,1-2,6.34,58.68,58.68,0,0,1-2.76,5.89q-1.24,2.32-2.62,4.55T53.3,47.24Z"/><path class="cls-2" d="M47,41.36l-.17.25,0,0A.73.73,0,0,0,47,41.36Z"/><path class="cls-3" d="M84.15,9.28c-2.22-2.74-4-4.51-7.56-4.25-3.34.24-7.35,3.65-8.67,5.68-.7,1.07-3.39,4.82-4.87,7.59,2.18-2.1,3.69-3.39,3.69-3.39,1.18-.95,2.52-2.73,5.53-5.12,1.66-1.31,3.73-2.44,5.79-2,1.84.38,3.19,1.91,4.16,3.49a28.72,28.72,0,0,1,3.57,11.06c1.27,8.65.69,17.48-.32,26.19-1.12,9.75-2.78,19.54-6.38,28.7C76.44,84,72,90.9,64.91,92.65c-6.52,1.61-13.16-1.7-18.63-5.49,6.91,5.86,15.24,11,24.17,5.51,4.22-2.58,7.13-6.83,9.3-11.23C84,72.86,85.87,63.38,87.38,54c1.56-9.74,2.77-19.63,1.87-29.44C88.78,19.33,87.63,14,84.53,9.78,84.41,9.61,84.28,9.45,84.15,9.28Z"/></svg>